<svg xmlns="http://www.w3.org/2000/svg" viewBox="0 0 128 128">
  <defs>
    <radialGradient id="glow" cx="72%" cy="20%" r="85%">
      <stop offset="0%" stop-color="#72f7ff"/>
      <stop offset="42%" stop-color="#18dce9"/>
      <stop offset="100%" stop-color="#05070a"/>
    </radialGradient>
    <linearGradient id="glass" x1="12" y1="10" x2="116" y2="118" gradientUnits="userSpaceOnUse">
      <stop stop-color="#ffffff" stop-opacity="0.28"/>
      <stop offset="1" stop-color="#ffffff" stop-opacity="0.04"/>
    </linearGradient>
  </defs>
  <rect width="128" height="128" rx="30" fill="#05070a"/>
  <rect x="10" y="10" width="108" height="108" rx="26" fill="url(#glow)" opacity="0.84"/>
  <rect x="16" y="16" width="96" height="96" rx="22" fill="#071018" opacity="0.82"/>
  <rect x="16" y="16" width="96" height="96" rx="22" fill="url(#glass)" stroke="#72f7ff" stroke-opacity="0.46" stroke-width="2"/>
  <path d="M37 84V43h20c9.5 0 16 5.8 16 14 0 5.5-2.9 10-7.8 12.2L75 84H62L54 71H49v13H37Zm12-23h7.4c2.9 0 4.8-1.7 4.8-4.2 0-2.6-1.9-4.2-4.8-4.2H49V61Zm30 23V43h12v31h18v10H79Z" fill="#f8fbff"/>
  <path d="M36 91h56" stroke="#72f7ff" stroke-width="5" stroke-linecap="round"/>
</svg>
